<svg width="148" height="52" version="1.1" id="Calque_1" xmlns="http://www.w3.org/2000/svg" xmlns:xlink="http://www.w3.org/1999/xlink" x="0px" y="0px"
     viewBox="0 0 273 60.3" style="enable-background:new 0 0 273 60.3;" xml:space="preserve">
  <g>
    <polygon fill="#FFF" class="st0" points="121.8,59.1 82.9,59.1 82.9,1.6 121.8,1.6 121.8,5.6 87.1,5.6 87.1,28 117.5,28 117.5,32.1 87.1,32.1
87.1,55 121.8,55 	"/>
    <path fill="#FFF" class="st1" d="M171.2,38.2c8.7-2.1,14.1-8.8,14.1-17.8c0-11.9-8.1-19-21.6-19h-20.6V59h4.2V39.1h19.2l15.5,19.6l0.3,0.4h3.5
		v-2.2L171.2,38.2z M165.2,35h-17.8V5.6h16.5c10.8,0,17.3,5.6,17.3,14.9C181.2,29.2,174.9,34.9,165.2,35z"/>
    <path fill="#FFF" class="st2" d="M229.6,0.3c-16.4,0-27.8,12.4-27.8,30.2c0,17.3,11.7,29.9,27.8,29.9c16.3,0,27.7-12.3,27.8-29.9
		C257.4,12.7,245.9,0.3,229.6,0.3z M229.6,56.2c-16.2,0-23.6-13.4-23.6-25.8c0-12.5,7.4-26,23.6-26s23.6,13.5,23.6,26
		C253.1,48.1,240.9,56.2,229.6,56.2z"/>
    <polygon fill="#FFF" class="st3" points="67.4,1.6 60,1.6 33.9,46.9 29.5,39.1 51.2,1.6 7.8,1.6 7.5,1.6 0.3,1.6 33.9,59.1 33.9,59 33.9,59.1
		"/>
    <g>
      <path fill="#FFF" class="st4" d="M258.3,6.2V3h-1.1V2.4h3V3H259v3.2H258.3z"/>
      <path fill="#FFF" class="st5" d="M264.4,6.2V3.4l-1.2,2.8h-0.3l-1.2-2.8v2.8h-0.7V2.4h0.9l1,2.5l1-2.5h0.9v3.8H264.4z"/>
	</g>
</g>
</svg>
